<svg xmlns="http://www.w3.org/2000/svg" viewBox="0 0 1200 220" preserveAspectRatio="xMidYEnd meet" aria-hidden="true" focusable="false">
  <g fill="currentColor">
    <!-- left low-rise cluster -->
    <path d="M0 220 L0 180 L40 180 L40 165 L70 165 L70 175 L100 175 L100 150 L120 150 L120 165 L150 165 L150 145 L175 145 L175 160 L200 160 L200 220 Z"/>
    <!-- mid towers -->
    <path d="M200 220 L200 130 L215 130 L215 115 L230 115 L230 135 L255 135 L255 110 L268 110 L268 100 L282 100 L282 120 L310 120 L310 220 Z"/>
    <!-- Burj Al Arab — sail silhouette -->
    <path d="M310 220 L310 170 C 322 168 332 150 340 120 C 348 88 354 60 360 50 L 374 220 Z"/>
    <!-- mid towers right of sail -->
    <path d="M374 220 L374 150 L395 150 L395 130 L412 130 L412 145 L440 145 L440 118 L458 118 L458 132 L478 132 L478 220 Z"/>
    <!-- twin-tower pair -->
    <path d="M478 220 L478 100 L498 100 L498 88 L515 88 L515 105 L532 105 L532 220 Z"/>
    <path d="M540 220 L540 95 L560 95 L560 82 L578 82 L578 100 L598 100 L598 220 Z"/>
    <!-- mid setback buildings -->
    <path d="M598 220 L598 140 L620 140 L620 122 L645 122 L645 138 L670 138 L670 115 L690 115 L690 130 L712 130 L712 220 Z"/>
    <!-- Burj Khalifa — tapered spire -->
    <path d="M712 220 L712 165 L735 165 L735 145 L748 145 L748 110 L756 110 L756 70 L762 70 L762 28 L766 28 L766 4 L770 4 L770 28 L774 28 L774 70 L780 70 L780 110 L788 110 L788 145 L800 145 L800 165 L820 165 L820 220 Z"/>
    <!-- right-side cluster -->
    <path d="M820 220 L820 150 L842 150 L842 132 L862 132 L862 148 L885 148 L885 120 L905 120 L905 135 L928 135 L928 155 L955 155 L955 140 L975 140 L975 165 L1000 165 L1000 220 Z"/>
    <!-- right low-rise -->
    <path d="M1000 220 L1000 175 L1025 175 L1025 160 L1052 160 L1052 175 L1080 175 L1080 168 L1108 168 L1108 180 L1140 180 L1140 170 L1170 170 L1170 185 L1200 185 L1200 220 Z"/>
  </g>
</svg>
